<?xml version="1.0" encoding="iso-8859-1"?>
<!-- Generator: Adobe Illustrator 19.0.0, SVG Export Plug-In . SVG Version: 6.00 Build 0)  -->
<svg version="1.1" id="Capa_1" xmlns="http://www.w3.org/2000/svg" xmlns:xlink="http://www.w3.org/1999/xlink" x="0px" y="0px"
	 viewBox="0 0 512 512" style="enable-background:new 0 0 512 512;" xml:space="preserve">
<path style="fill:#FDBC4B;" d="M288.56,153.92h-65.12c-30.928,0-58.656-17.904-70.656-45.616l-15.936-36.8
	c-3.632-8.384-2.8-17.968,2.224-25.616c5.216-7.952,14.096-12.688,23.76-12.688h186.336c9.664,0,18.544,4.736,23.76,12.688
	c5.024,7.664,5.856,17.232,2.224,25.616l-15.936,36.8C347.216,136.016,319.488,153.92,288.56,153.92z M162.832,46.704
	c-5.088,0-9.76,2.464-12.464,6.592c-2.56,3.888-2.976,8.576-1.12,12.832l15.936,36.8c9.856,22.752,32.736,37.472,58.272,37.472
	h65.12c25.536,0,48.4-14.72,58.272-37.472l15.936-36.8c1.84-4.272,1.44-8.944-1.12-12.832c-2.72-4.128-7.376-6.592-12.464-6.592
	C349.2,46.704,162.832,46.704,162.832,46.704z"/>
<path style="fill:#FFDB70;" d="M286.272,162.352c-5.648,13.136-6.384,28.08-0.64,41.216h-59.264
	c5.648-13.136,5.008-28.08-0.64-41.216c-30.368-53.52-48.512-91.088-52.528-144.704h165.584
	C334.784,71.248,316.64,108.816,286.272,162.352z"/>
<path style="fill:#FDBC4B;" d="M297.44,203.52h-82.896c-5.04,0-9.12,4.08-9.12,9.12v7.072H306.56v-7.072
	C306.56,207.6,302.48,203.52,297.44,203.52z"/>
<path style="fill:#464646;" d="M319.248,219.712H192.72c-5.04,0-9.12,4.08-9.12,9.12v39.68h144.752v-39.68
	C328.368,223.792,324.288,219.712,319.248,219.712z"/>
<path style="fill:#FDBC4B;" d="M342.304,0H169.696c-3.696,0-6.704,2.992-6.704,6.704v4.256c0,3.696,2.992,6.704,6.704,6.704h172.592
	c3.696,0,6.704-2.992,6.704-6.704V6.704C348.992,2.992,346,0,342.304,0z"/>
<path style="fill:#FFCC5B;" d="M262.752,151.552c0-5.936-4.88-10.816-10.816-10.816h-17.264c-5.088,0-9.216-4.144-9.12-9.12v-0.848
	c-0.32-4.88,3.6-9.12,8.592-9.12h36.144c5.936,0,11.136-4.352,11.552-10.176c0.208-6.256-4.672-11.456-10.912-11.456h-32.656
	c-4.976,0-9.12-4.128-9.12-9.12l0.112-0.64v-0.08c-0.112-5.296,4.24-9.648,9.536-9.648h12.72c5.936,0,11.136-4.352,11.552-10.288
	c0.208-6.256-4.672-11.456-10.912-11.456h-15.376c-5.296,0-9.12-4.352-9.12-9.648c0,0,0,0,0-0.112s0-0.112,0-0.112
	c0-5.2,3.824-9.648,9.12-9.648h27.456c5.824,0,11.024-4.352,11.344-10.176c0.32-6.368-4.672-11.456-10.816-11.456h-91.552
	c4.016,53.552,22.16,91.168,52.496,144.72c0,0,0.24,0,0.688,0c2.816,0,13.952,0,25.856,0
	C258.08,162.256,262.752,157.488,262.752,151.552z"/>
<path style="opacity:0.1;fill:#010101;enable-background:new    ;" d="M338.288,22c0.128-1.472,0.368-2.848,0.48-4.352H173.216
	c0.112,1.504,0.352,2.88,0.48,4.352H338.288z"/>
<rect y="345.024" style="fill:#F89E62;" width="170.672" height="166.976"/>
<rect x="170.672" y="267.584" style="fill:#ED6362;" width="170.672" height="244.416"/>
<rect x="341.328" y="376.352" style="fill:#F89E62;" width="170.672" height="135.648"/>
<path style="fill:#E95454;" d="M341.328,267.584H246.72c-7.712,0-14.464,5.648-14.88,13.232c-0.416,8.128,6.064,14.88,14.048,14.88
	h9.872c8.128,0,14.608,6.752,14.192,14.88c-0.416,7.584-7.296,13.36-14.88,13.36h-15.12c-7.584,0.144-13.632,6.336-13.632,14.048
	s6.336,14.048,14.048,14.048h28.624c6.608,0,11.984,5.376,11.856,11.856v1.104c0.416,6.336-4.688,11.84-11.168,11.84h-32.32
	c-7.712,0-14.464,5.648-15.024,13.232c-0.272,8.128,6.064,14.88,14.192,14.88h27.776c6.48,0,11.856,5.376,11.856,11.856
	l-0.144,0.832v0.144c0.144,6.896-5.504,12.544-12.4,12.544h-26c-7.712,0-14.464,5.648-15.024,13.36
	c-0.272,8.128,6.064,14.88,14.192,14.88h29.456c6.896,0,11.856,5.648,11.856,12.544c0,0,0,0,0,0.144s0,0.144,0,0.144
	c0,6.752-4.96,12.544-11.856,12.544h-17.456c-7.584,0-14.336,5.648-14.736,13.232c-0.432,8.224,6.048,14.832,14.048,14.832h93.248
	V267.584H341.328z"/>
<path style="fill:#FAAB74;" d="M418.576,376.352c-7.616,0-14.288,5.568-14.688,13.056c-0.416,8.032,5.984,14.704,13.872,14.704h9.76
	c8.032,0,14.416,6.672,14.016,14.688c-0.416,7.488-7.232,13.2-14.704,13.2h-14.928c-7.488,0.144-13.472,6.256-13.472,13.872
	s6.256,13.872,13.872,13.872h28.272c6.528,0,11.84,5.312,11.696,11.696v1.088c0.416,6.256-4.624,11.696-11.024,11.696h-31.904
	c-7.616,0-14.288,5.584-14.832,13.056c-0.272,8.048,5.984,14.72,14.016,14.72H512V376.352H418.576z"/>
<path style="fill:#F89959;" d="M55.664,345.024c-9.376,0-17.584,6.864-18.08,16.08c-0.512,9.888,7.36,18.096,17.072,18.096h12
	c9.888,0,17.76,8.208,17.248,18.08c-0.496,9.216-8.88,16.24-18.08,16.24H47.44c-9.216,0.176-16.576,7.712-16.576,17.088
	s7.696,17.088,17.088,17.088h34.8c8.032,0,14.576,6.528,14.4,14.4v1.344c0.496,7.696-5.696,14.4-13.568,14.4H44.288
	c-9.376,0-17.584,6.864-18.256,16.08C25.696,503.792,33.408,512,43.296,512h127.376V345.024H55.664z"/>
<g>
	<path style="fill:#FFFFFF;" d="M258.512,352.896c-1.6,4.48-4.56,8.4-8.88,11.76c-2.656,2.064-5.152,3.584-7.568,4.832v12.8
		c5.088-2.224,9.792-4.96,13.776-8.688v53.088h14.096V352.88h-11.424V352.896z"/>
	<path style="fill:#FFFFFF;" d="M110.032,452.336v13.088H60.64c0.528-4.944,2.144-9.632,4.816-14.064
		c2.672-4.432,7.952-10.304,15.84-17.616c6.352-5.92,10.24-9.92,11.68-12.032c1.936-2.912,2.912-5.776,2.912-8.624
		c0-3.136-0.848-5.552-2.528-7.248c-1.68-1.68-4.016-2.528-6.992-2.528c-2.944,0-5.28,0.88-7.024,2.656s-2.736,4.72-3.008,8.816
		l-14.032-1.408c0.832-7.76,3.456-13.312,7.872-16.688c4.416-3.376,9.92-5.056,16.544-5.056c7.248,0,12.944,1.952,17.104,5.872
		c4.144,3.904,6.224,8.768,6.224,14.592c0,3.312-0.592,6.464-1.776,9.456s-3.072,6.128-5.648,9.408
		c-1.712,2.176-4.784,5.296-9.232,9.376s-7.264,6.784-8.448,8.128s-2.144,2.64-2.88,3.904h27.968V452.336z"/>
	<path style="fill:#FFFFFF;" d="M402.256,460.944l13.632-1.648c0.432,3.472,1.6,6.128,3.504,7.968s4.208,2.752,6.912,2.752
		c2.912,0,5.36-1.104,7.344-3.312s2.976-5.184,2.976-8.928c0-3.536-0.96-6.352-2.864-8.416c-1.904-2.08-4.224-3.104-6.976-3.104
		c-1.808,0-3.968,0.352-6.464,1.056l1.552-11.488c3.808,0.096,6.72-0.72,8.72-2.48s3.008-4.08,3.008-6.992
		c0-2.48-0.736-4.448-2.208-5.92c-1.472-1.472-3.424-2.208-5.872-2.208c-2.4,0-4.464,0.832-6.16,2.512
		c-1.712,1.664-2.736,4.112-3.104,7.312l-12.992-2.208c0.896-4.448,2.272-8,4.08-10.656c1.824-2.656,4.368-4.752,7.616-6.272
		c3.264-1.52,6.912-2.288,10.96-2.288c6.912,0,12.464,2.208,16.64,6.624c3.44,3.616,5.168,7.68,5.168,12.24
		c0,6.448-3.52,11.6-10.576,15.44c4.208,0.896,7.584,2.928,10.096,6.064s3.792,6.928,3.792,11.376
		c0,6.448-2.352,11.952-7.072,16.496s-10.576,6.816-17.6,6.816c-6.656,0-12.16-1.92-16.544-5.744
		C405.488,472.144,402.96,467.136,402.256,460.944z"/>
</g>
<g>
</g>
<g>
</g>
<g>
</g>
<g>
</g>
<g>
</g>
<g>
</g>
<g>
</g>
<g>
</g>
<g>
</g>
<g>
</g>
<g>
</g>
<g>
</g>
<g>
</g>
<g>
</g>
<g>
</g>
</svg>
