<svg enable-background="new 0 0 2272 1872" viewBox="0 0 2272 1872" xmlns="http://www.w3.org/2000/svg"><path d="m0 0h2272v1872h-2272z" fill="#d5d3ea"/><path d="m2068 1625.5h-1887.4c30.2-27.9 41-76.6 35.4-117.3s-23.1-78.7-37.6-117.2c-42.8-113.3-54.9-256.3 30.7-342 58.6-58.7 151.2-77.3 201.2-143.5 70.6-93.5 22.2-229.2 53.6-342.1 35.9-129.6 193.5-210.1 319.7-163.4 27.6 10.2 53.6 25.5 82.5 30.4 68.9 11.6 131.5-36.4 191.7-71.7 74.6-43.7 158.8-70.8 244.9-78.8 54.2-5 111.7-1.8 158.4 26.1 104.2 62.1 114.6 217 210.7 291.1 58.7 45.3 138.1 51.6 205.8 81.9 97.9 43.9 170.4 149.8 156.6 256.2-7.9 60.6-41.5 119-31.2 179.2 11 63.7 67.3 108.1 102 162.7 64 100.5 49.8 266.8-37 348.4z" fill="#201e51"/><path d="m400.3 1195.7c-27.1-9.4-57.2 11.7-67.7 38.4s-6.5 56.7-1.5 84.9c19.3 108.7 52.8 218.6 118.3 306.4h129.8c-27.4-140.7-57.8-286.6-144.7-400.5-9.4-12-19.9-24.2-34.2-29.2z" fill="#2c2c75"/><path d="m525.2 1610.3c-8.9-24.9-19.7-49.3-29.3-74-9.7-25-19.4-50.1-28.8-75.2-18.6-49.7-36.5-99.7-53.8-149.9-9.8-28.5-19.9-56.8-29.6-85.4-1.7-5-9.5-3-8 2.2 29.9 102.5 64.8 203.4 103.5 302.8 11 28.2 21.3 57 34 84.4 3.2 6.8 14.5 2.1 12-4.9z" fill="#201e51"/><path d="m619.6 1084c-22.8-4.5-41.2 18.5-50.6 39.8-35.2 79.6-29.9 171.4-10.5 256.3 18.9 82.8 50.3 162.4 68.6 245.4h108.2c-.4-173.4-5-352.5-82.1-507.4-7.4-14.8-17.4-30.9-33.6-34.1z" fill="#2c2c75"/><path d="m681.5 1569.7c-1-8.6-2.2-17.2-3.3-25.7-2.1-16.6-4.2-33.1-6.6-49.6-2.4-16.2-5.6-32.3-10.1-48.1-4.5-15.9-9.7-31.7-12.8-47.9-11-58.8 4.3-121.2-21.5-177.3-7-15.2-16.3-29-19.6-45.6-3.2-16.3-.3-33.7 7.4-48.3 1.6-3.1-2.7-5.6-4.6-2.7-7.5 11.6-11.9 24.8-12.8 38.5-.9 15 3.1 28.8 9.4 42.3 6.5 14 13.3 27.3 17 42.4 3.6 14.9 5 30.1 5.6 45.4 1 30.8-1 61.8 2.3 92.6 3.6 33.1 16.4 64 22.3 96.6 3.4 18.5 5.5 37.2 7.9 55.8 1.3 9.9 2.5 19.8 3.8 29.7 1.3 9.8 1.9 20.1 4.8 29.5 2.2 7.3 12.9 5.8 13.2-1.8.3-8.6-1.3-17.2-2.4-25.8z" fill="#201e51"/><path d="m2090 1416.6c-2.2-12.3-6-25.1-15.2-33.7-19.2-18-50.8-9.4-73.1 4.6-81.8 51.2-117.1 149.5-156.7 238h170.7c8.2-9.2 16-18.7 23.3-28.6 38.1-51.7 62.1-117.1 51-180.3z" fill="#2c2c75"/><path d="m952.9 1523.3c-3.8-11.7-9.3-23.1-10.2-35.4-1.9-27.1 18.5-49.8 33.3-72.5 17.1-26.1 28.1-58.3 20.3-88.5-8.1-31.6-35.7-57.5-35.8-90.1-.2-55.2 77.6-92.8 65.8-146.7-5.4-24.6-28.1-40.9-49.1-54.8-24.6 23.5-49.2 47-73.8 70.6-13.9 13.3-28.6 28.1-30.7 47.2-3 27 20.5 51.2 19.1 78.4-2.3 44.4-64.1 60.3-81.5 101.2-20 47 27.1 102.1 9.2 149.8-5.3 14.1-15.7 25.6-25.1 37.4-24.7 31.2-43.2 67.4-54 105.7h199.9c17.7-30.7 23.4-68.5 12.6-102.3z" fill="#2c2c75"/><path d="m966.6 1203.7c3.1-3.2-1.8-8-4.8-4.8-9.3 9.6-18 19.3-25.1 30.7-7.3 11.6-12.7 24.3-16.5 37.4-3.8 12.9-5.5 26.6-5.6 40-.1 15.7 2.6 31.2 4.4 46.8 1.7 15.2 2.8 31-1.5 45.9-3.7 12.7-11 24-17.6 35.4-6.5 11.1-13 22.9-15.4 35.7-3.1 15.8.7 31.7-.9 47.6-1.4 15.1-7.7 29.5-15.3 42.5-4.2 7.1-8.8 13.9-13.6 20.5s-10.1 12.8-14.1 20c-3.8 6.9 5 13.5 10.7 8.3 10.3-9.4 18.6-21.9 26.1-33.6 7.7-12 14.3-24.9 18.2-38.6 4.2-14.7 3.8-29.2 3-44.3-.7-14.2 1.8-26.7 8.1-39.5 5.8-11.7 13-22.7 18.5-34.6 6.3-13.7 9.4-27.8 9.4-42.9-.1-29.9-9.3-59-5.2-89.1 3.8-29.6 16.2-61.7 37.2-83.4z" fill="#201e51"/><path d="m1871.5 1218.7c-2.4-36.7-16-80.4-51.8-88.6-22.3-5.2-45.3 6.3-62.6 21.2-66.8 57.7-72.4 157.5-73 245.8-.5 76.1-.9 152.3-1.4 228.4h79c60.6-129.2 119.2-265.1 109.8-406.8z" fill="#2c2c75"/><path d="m1625.3 1497.1c4.3-29 14.4-59.6 3-86.6-15.5-36.3-65.9-54.3-68.3-93.7-1.7-29.1 25.2-53.2 26.9-82.4 2.9-49.9-67-82.6-61.8-132.4-29.2-1.7-44.5 35.6-41.8 64.7 2.8 29.1 14.4 59.4 3.5 86.5-3.1 7.7-7.9 14.7-9.5 22.8-6.9 35.2 48.2 62.4 37.4 96.6-4.2 13.4-17.5 21.8-24 34.1-25.2 47.3 59.8 98.3 39.6 147.9-6.4 15.8-22.4 26-29.9 41.3-4.6 9.3-5.7 19.2-4.6 29.4h150.7c-19.8-39.2-27.7-84.6-21.2-128.2z" fill="#2c2c75"/><path d="m1595.1 1506c-4.9-15.3-13.3-29.4-17.6-44.9-4.6-16.6-.3-32.8.7-49.5 1-16-3.6-30.4-12.4-44-7.9-12.3-18.2-23.5-24.2-36.9-13.4-30.2.1-64.2-2.2-95.6-1.3-18.1-8.4-34.4-15.2-51.1-6.5-16-12.7-33-6.7-49.9 1-2.7-3.6-4.6-5-2-14.8 28.9 6.3 58.4 13.4 86.3 8.1 32-6.4 64.3-2.3 96.5 2 15.5 8.5 28.8 17.3 41.9 8.2 12.1 17.9 24.1 21 38.5 3.6 16.6-2.9 33.7-3 50.3-.1 16.5 6.5 31.5 13 46.5 3.7 8.4 7.2 17 9.2 25.9 2.1 9.5 2 19.3 1 29-1 9.5-3.4 18.9-6.2 28-3 10-7.1 19.7-8.5 29.9-1 6.9 10.1 8.7 13.4 3.4 4.7-7.7 7.4-16.4 10-24.9s4.9-17.1 6.4-25.8c3.2-17.2 3.3-34.7-2.1-51.6z" fill="#201e51"/><ellipse cx="1180.1" cy="1803" fill="#8484af" rx="245.3" ry="35.3"/><path d="m872.6 1156.8v98.8c0 25.9 21 46.9 46.9 46.9h433c25.9 0 46.9-21 46.9-46.9v-98.8z" fill="#575a8e"/><path d="m1393 1231.6h-508.4v-337.2c0-29.8 24.1-53.9 53.9-53.9h400.6c29.8 0 53.9 24.1 53.9 53.9z" fill="#575a8e"/><path d="m1146.4 396.4c-43.6 6.5-79.7 46.7-81.5 90.7-.7 16.6 3 33.1 6.1 49.4 3.9 20 7 40.5 4.2 60.7-2.7 19-10.5 36.8-18.2 54.3-49.1 111.2-124.9 193.1-130.5 314.6-1.3 29.1 2.9 59.6 19 83.9 8.6 13 20.2 23.7 32.7 32.9 64.9 47.4 150.8 52 231.2 51 54.7-.7 115-5.5 153.3-44.5 43-43.8 41.7-114.7 24.5-173.6-28.5-97.5-91.5-182.7-115.3-281.4-12.1-50.1-13.6-102.1-21.4-153-4.6-30.2-14.7-64.3-42.7-76.5-19.6-8.6-40.4-11.6-61.4-8.5z" fill="#ef5ea2"/><path d="m1387.1 915.8c-28.5-97.5-91.5-182.7-115.3-281.4-12.1-50.1-13.6-102.1-21.4-153-3.8-24.6-11.2-51.7-28.9-67.6-11.9 12.3-24.3 24.1-38.3 34-18.9 13.3-41 23-64.1 23.8 4.4-8.9 8.7-17.9 13.1-26.8-19.1 17.9-42.1 35.1-67.2 39.2-.1 1.1-.2 2.1-.2 3.2-.7 16.6 3 33.1 6.1 49.4 3.9 20 7 40.5 4.2 60.7-2.7 19-10.5 36.8-18.2 54.3-49.1 111.2-124.9 193.1-130.5 314.6-1.3 29.1 2.9 59.6 19 83.9 8.6 13 20.2 23.7 32.7 32.9 64.9 47.4 150.8 52 231.2 51 54.7-.7 115-5.5 153.3-44.5 43-43.9 41.7-114.9 24.5-173.7z" fill="#af3874"/><path d="m1212.2 501.2c-1 84.4-9.4 116-64.4 115.9-54.4-.1-59.5-115.9-59.5-115.9 4.1 9.9 8 19.4 15.3 27.2 21.1-2 35.4-17.7 55-25.8-5.6 12.9-13.3 22.8-23.8 32.2 26.8-5.5 57.1-15.4 77.4-33.6z" fill="#fec83d"/><circle cx="1111.7" cy="543" fill="#d5d3ea" r="31.8"/><circle cx="1186" cy="543" fill="#d5d3ea" r="31.8"/><g fill="#fff"><path d="m1116 511.6c-11.8 13.8-23.1 28-34 42.4 1.4 3.7 3.4 7 5.9 9.9 9.7-17.6 19.8-35.1 30.8-51.9-.9-.1-1.8-.3-2.7-.4z"/><path d="m1132.4 519c-7.5 8.8-14.1 18.5-21.1 27.9-5.7 7.6-11.6 15-17.8 22.2 4.6 3.2 10.2 5.3 16.2 5.6 9.1-17.2 17.9-34.4 26.5-51.9-1.1-1.3-2.4-2.6-3.8-3.8z"/><path d="m1186 511.3c-.2 0-.4 0-.6 0-9.7 15.3-18.6 31.1-27.2 47.1 1.6 2.9 3.6 5.5 6 7.7 7.8-18.4 15.9-36.6 24.3-54.7-.8-.1-1.6-.1-2.5-.1z"/><path d="m1209.2 521.3c-13.7 16-27.4 31.9-41.1 47.9 3.8 2.6 8.3 4.4 13.1 5.2 10.2-16.7 20.3-33.4 30.5-50.1-.8-1.1-1.6-2-2.5-3z"/></g><path d="m1256.3 951.2c-14.7-35.1 70.3-293.3 70.3-293.3l-150.1-53.7-14.8-2.9v-3.6l-9.2 1.8-9.2-1.8v3.6l-14.8 2.9-150.1 53.7s85 258.3 70.3 293.3c-14.7 35.1-122.5 138.5-74.2 203.9 40.8 55.3 146.2 44.7 177.9 40.1 31.7 4.6 137.1 15.2 177.9-40.1 48.5-65.4-59.2-168.8-74-203.9z" fill="#ec5946"/><path d="m990.5 1037.9c-24 39.4-50.6 111-25.6 144.8 40.8 55.3 156 17.1 187.7 12.5 31.7 4.6 137.1 15.2 177.9-40.1 25.8-35 7-80.9-18.3-121.3-105.2 25.1-216 26.6-321.7 4.1z" fill="#202b35"/><path d="m1073 1030c4.5-1.1 9.2-2.5 12.9-5.4 4.8-3.7 7.6-9.3 10-14.8 32.1-73.1 29.7-156.3 49.9-233.5 1.8-7 2.1-12.4 3.4-19.5 1.3-7.2 2.7-14.7.8-21.7s-8.1-13.5-15.4-13.3c-9.6.4-15 11.1-18.1 20.2-8.5 24.9-15.5 50.4-21 76.2-2.3 10.8-4.5 22-10.1 31.5s-15.7 17.3-26.8 16.8c-1.4-56.3-11.8-112.4-30.7-165.4-3.1-8.8-7.1-18.2-15.4-22.6-4.8-2.5-10.3-2.9-15.7-2.9-4.1 0-8.2.1-12.2.5 19 59.3 76.8 245.8 64.4 275.2-6.5 15.5-31 44.1-52.3 77 24.6 7.2 51.2 7.9 76.3 1.7z" fill="#440235"/><path d="m1123.4 732.6h-16.9c-5 0-9.6 3-11.6 7.7l-57.4 135.9-32.4-219.2-26.5.9s-80.3 31.7-79.4 52.3 42.8 265.9 79.4 278.4c36.7 12.5 91.5 24.2 99 10.8 7.1-12.5 41-170.3 58-251.7 1.7-7.8-4.3-15.1-12.2-15.1z" fill="#ec5946"/><path d="m1123.4 732.6h-16.9c-5 0-9.6 3-11.6 7.7l-49.7 117.5c-.4 7.5 2.8 15.2 7.9 20.8 6.4 7 15.4 11.2 24.5 13.9 8.4 2.5 17.2 3.9 25.9 4.2 11.3-50.6 23.8-108.9 32.1-148.9 1.7-7.9-4.3-15.2-12.2-15.2z" fill="#fec83d"/><path d="m1232.2 1030c-4.5-1.1-9.2-2.5-12.9-5.4-4.8-3.7-7.6-9.3-10-14.8-32.1-73.1-29.7-156.3-49.9-233.5-1.8-7-2.1-12.4-3.4-19.5-1.3-7.2-2.7-14.7-.8-21.7s8.1-13.5 15.4-13.3c9.6.4 15 11.1 18.1 20.2 8.5 24.9 15.5 50.4 21 76.2 2.3 10.8 4.5 22 10.1 31.5s15.7 17.3 26.8 16.8c1.4-56.3 11.8-112.4 30.7-165.4 3.1-8.8 7.1-18.2 15.4-22.6 4.8-2.5 10.3-2.9 15.7-2.9 4.1 0 8.2.1 12.2.5-19 59.3-76.8 245.8-64.4 275.2 6.5 15.5 31 44.1 52.3 77-24.6 7.2-51.3 7.9-76.3 1.7z" fill="#440235"/><path d="m1181.8 732.6h16.9c5 0 9.6 3 11.6 7.7l57.4 135.9 32.4-219.2 26.5.9s80.3 31.7 79.4 52.3-42.8 265.9-79.4 278.4c-36.7 12.5-91.5 24.2-99 10.8-7.1-12.5-41-170.3-58-251.7-1.7-7.8 4.3-15.1 12.2-15.1z" fill="#ec5946"/><path d="m1181.8 732.6h16.9c5 0 9.6 3 11.6 7.7l49.7 117.5c.4 7.5-2.8 15.2-7.9 20.8-6.4 7-15.4 11.2-24.5 13.9-8.4 2.5-17.2 3.9-25.9 4.2-11.3-50.6-23.8-108.9-32.1-148.9-1.7-7.9 4.3-15.2 12.2-15.2z" fill="#fec83d"/><path d="m1143.5 570.4v186.4l-137.4-27.1c-5.8-1.1-9.9-6.2-9.9-12.1v-155.6c0-7.5 6.7-13.3 14.2-12.1z" fill="#8889c2"/><path d="m1166.7 570.4v186.4l137.4-27.1c5.8-1.1 9.9-6.2 9.9-12.1v-155.6c0-7.5-6.7-13.3-14.2-12.1z" fill="#8889c2"/><path d="m1143.5 570.4h23.2v186.4h-23.2z" fill="#656796"/><path d="m1116.6 1227.4s32.2-86.1-28.2-118.9c-27-14.7-60.1-11.6-84.7 6.7-24.8 18.5-50.8 50.8-30.2 98.6 35 81.1 175.6 374 175.6 374s17.4 3.6 28.9-23.4-61.4-337-61.4-337z" fill="#fec83d"/><path d="m1152.8 1391.6c-22 46.5-23.6 100.1-24.7 151.7v.7c12.8 26.9 21 43.8 21 43.8s17.4 3.6 28.9-23.4c5.6-13.2-8.9-93.8-25.2-172.8z" fill="#ef7c2e"/><path d="m1182 1468.4s20 49.1 17.7 65.3-2 93.4-26.6 120.5c-24.7 27.1-22 36.4-29.5-79.4 0 0 31.3 7.2 32.7-29.8s5.7-76.6 5.7-76.6z" fill="#151d23"/><path d="m1100.3 1150.2c-10.4 9.2-24.9 14.9-38.3 11.4-10.6-2.7-23.9-9.8-30.5-1.2 27.4 15.3 54.7 33.2 71.2 59.9 9.4 15.3 14.8 32.6 20.1 49.8 4.5 14.6 9 29.2 13.5 43.8-10.9-49.5-19.6-86.5-19.6-86.5s20.5-54.9-2-93.8c-4.3 6.1-8.9 11.8-14.4 16.6z" fill="#ef7c2e"/><path d="m1073.2 1216.9c-4.2 2.7-6.7 6.7-10.3 10.1-3.7 3.5-7.9 6.5-12.7 8.4-10.7 4.2-22.9 3.4-32.9-2.2-4.5-2.5-8.4 4.2-4 6.9 11.8 7.3 26.5 10.1 39.8 5.7 10.7-3.5 25.9-12.9 25.9-25.5 0-2.9-3.3-5-5.8-3.4z" fill="#202b35"/><path d="m1090.4 1231.3c-1.4-1.1-3.9-1.2-5.2.3-1.4 1.6-2.7 3.3-4.1 4.9-1.6 2-1.7 4.7.4 6.4 2.1 1.6 4.8.9 6.3-1.2 1.2-1.8 2.4-3.5 3.6-5.3 1.2-1.6.5-3.9-1-5.1z" fill="#202b35"/><path d="m1290.6 1115.2c-24.6-18.3-57.7-21.4-84.7-6.7-60.4 32.9-28.2 118.9-28.2 118.9s-23.6 421-12.1 448 28.9 23.4 28.9 23.4 91.3-403.9 126.3-485c20.6-47.8-5.4-80.1-30.2-98.6z" fill="#fec83d"/><path d="m1272.3 1199.5c-18.8 4.8-39.8 1.2-51.6-15.7-3.2-4.6-10.7-.5-7.7 4.5 12.6 20.5 41.1 32.5 63.7 21.5 5.9-2.8 1.7-11.8-4.4-10.3z" fill="#202b35"/><path d="m1161.4 1576.1s-20 49.1-17.7 65.3 2 93.4 26.6 120.5c24.7 27.1 22 36.4 29.5-79.4 0 0-31.3 7.2-32.7-29.8s-5.7-76.6-5.7-76.6z" fill="#202b35"/><path d="m1076.5 665.2c1.2-2.9 4.9-6.1 6.9-3.6.8.9.7 2.3.6 3.5-.7 8.3-1.3 16.7-2 25-.2 1.9-.3 3.9.7 5.6s3.5 2.5 4.8 1.1c.7-.7.9-1.6 1-2.6.9-6.3-.1-12.8.2-19.2s2.3-13.3 7.5-17c1-.7 2.1-1.3 3.3-1.3 4 0 5.1 5.6 4.7 9.6-.7 8.6-1.3 17.2-2 25.8-.2 2.2-.3 4.5.8 6.4s4 2.8 5.5 1.2c.6-.6.9-1.5 1.1-2.4 1.7-7.6.4-15.5 1.4-23.3 1-7.7 5.7-16.1 13.5-16.9-.7 12.1-1.4 24.3-2.1 36.4-.2 3.8 1 9.2 4.8 8.9 3.6-6.9 2.3-15.2 2.5-22.9s3.7-16.9 11.3-18.4c5.3 10.7 1.5 23.4-.4 35.1-1.4 8.1-1.8 16.3-1.3 24.5.7 12.7 3.1 27.2-5.3 36.7-18 20.3-41-7.1-50.5-21.3-13.9-20.4-16.8-48.1-7-70.9z" fill="#fec83d"/><path d="m1229.7 664.6c-1.2-2.9-4.9-6.1-6.9-3.6-.8.9-.7 2.3-.6 3.5.7 8.3 1.3 16.7 2 25 .2 1.9.3 3.9-.7 5.6-1 1.6-3.5 2.5-4.8 1.1-.7-.7-.9-1.6-1-2.6-.9-6.3.1-12.8-.2-19.2s-2.3-13.3-7.5-17c-1-.7-2.1-1.3-3.3-1.3-4 0-5.1 5.6-4.7 9.6.7 8.6 1.3 17.2 2 25.8.2 2.2.3 4.5-.8 6.4s-4 2.8-5.5 1.2c-.6-.6-.9-1.5-1.1-2.4-1.7-7.6-.4-15.5-1.4-23.3s-5.7-16.1-13.5-16.9c.7 12.1 1.4 24.3 2.1 36.4.2 3.8-1 9.2-4.8 8.9-3.6-6.9-2.3-15.2-2.5-22.9s-3.7-16.9-11.3-18.4c-5.3 10.7-1.5 23.4.4 35.1 1.4 8.1 1.8 16.3 1.3 24.5-.7 12.7-3.1 27.2 5.3 36.7 18 20.3 41-7.1 50.5-21.3 13.9-20.3 16.7-48 7-70.9z" fill="#fec83d"/><path d="m866.2 0h20.8v1228.1h-20.8z" fill="#d5d3ea"/><path d="m1387.9 0h20.8v1228.1h-20.8z" fill="#d5d3ea"/><path d="m862.2 951.7v292.1h59.1c15 0 27.1-12.1 27.1-27.1v-178.8c0-47.6-38.6-86.2-86.2-86.2z" fill="#8681bd"/><path d="m1414.5 951.7c-47.6 0-86.2 38.6-86.2 86.2v175c0 17.1 13.8 30.9 30.9 30.9h55.3z" fill="#8681bd"/><path d="m1801.1 1170.4c-6.3 27.1-12.9 54.1-18.3 81.4s-10.9 54.6-16.1 82c-10.3 54.1-20.6 108.2-30.5 162.4-5.6 30.7-11.7 61.4-16.3 92.2-1.2 7.8 10.4 11.5 12.2 3.4 6.2-27.2 11.1-54.6 16.3-81.9 5.2-27.4 10.5-54.7 15.6-82.1 10-54.2 20-108.4 29.6-162.7 5.5-30.9 9.8-61.8 14.3-92.8.5-4.3-5.7-6.4-6.8-1.9z" fill="#201e51"/><path d="m2056.2 1388.8c-21.9 35.7-44 71.3-65.9 107-10.8 17.6-21.6 35.1-32.2 52.8-5.5 9.1-11 18.2-16.5 27.3-5.3 8.7-12.5 17.8-15.5 27.6-2 6.5 6.6 11.2 11.3 6.6 7.2-7.2 11.8-18 17-26.7 5.4-9.1 10.9-18.3 16.3-27.4 10.5-17.7 20.9-35.5 31.4-53.3 21.2-36.1 42.2-72.4 63.4-108.5 3.4-6-5.8-11.3-9.3-5.4z" fill="#201e51"/><path d="m1134.8 543h29v3.6h-29z" fill="#201e51"/></svg>